<?xml version="1.0" encoding="utf-8"?>
<!-- Generator: Adobe Illustrator 23.0.2, SVG Export Plug-In . SVG Version: 6.00 Build 0)  -->
<svg version="1.1" id="Layer_1" xmlns="http://www.w3.org/2000/svg" xmlns:xlink="http://www.w3.org/1999/xlink" x="0px" y="0px"
	 viewBox="0 0 240.9 80.9" style="enable-background:new 0 0 240.9 80.9;" xml:space="preserve">
<polygon points="19.2,40.8 19.2,54.6 6.9,54.6 6.9,40.8 0,40.8 0,72.7 6.9,72.7 6.9,60.1 19.2,60.1 19.2,72.7 26.1,72.7 26.1,40.8 
	"/>
<path d="M30.1,50.3h6.2v22.4h-6.2V50.3z M29.7,43.9c-0.1-1.9,1.4-3.6,3.4-3.7c1.9-0.1,3.6,1.4,3.7,3.4c0.1,1.9-1.4,3.6-3.4,3.7
	c-0.1,0-0.1,0-0.2,0c-1.9,0.1-3.4-1.4-3.5-3.3C29.7,44,29.7,43.9,29.7,43.9"/>
<path d="M64.8,40.8H71v13.1c1.1-2.2,3.6-4.1,7.3-4.1c4.4,0,7.5,2.7,7.5,8.6v14.2h-6.2V59.3c0-3-1.2-4.5-3.9-4.5S71,56.5,71,59.8
	v12.9h-6.2L64.8,40.8z"/>
<polygon points="97.3,40.8 116.9,40.8 116.9,46.2 104.2,46.2 104.2,55.6 115.8,55.6 115.8,60.8 104.2,60.8 104.2,72.7 97.3,72.7 "/>
<path d="M119.7,50.3h6.2v22.4h-6.2V50.3z M119.2,43.9c-0.1-1.9,1.4-3.6,3.4-3.7s3.6,1.4,3.7,3.4c0.1,1.9-1.4,3.6-3.4,3.7
	c-0.1,0-0.1,0-0.2,0c-1.9,0.1-3.4-1.4-3.5-3.3C119.2,44,119.2,43.9,119.2,43.9"/>
<path d="M145.1,61.6v-0.3c0-4.5-2-6.7-5.4-6.7s-5.4,2.3-5.4,6.8v0.3c0,4.5,2.1,6.6,5.2,6.6C142.8,68.3,145.1,66.2,145.1,61.6
	 M128,61.8v-0.3c0-7.4,4.2-11.7,9.8-11.7c3.6,0,5.8,1.6,7.1,3.8V40.8h6.2v31.9h-6.2V69c-1.4,2.6-4.2,4.2-7.2,4.2
	C132.3,73.2,128,69.3,128,61.8"/>
<path d="M55.5,60.9v-0.3c0-3.8-2-6.1-5.4-6.1s-5.4,2.5-5.4,6.2V61c0,3.7,2.2,6,5.3,6C53.2,67,55.5,64.7,55.5,60.9 M38.5,73.2h6.2
	c0.4,2,1.8,3.2,5,3.2c3.8,0,5.7-2,5.7-5.5v-3.4c-1.5,2.6-4.2,4.1-7.2,4.2c-5.4,0-9.8-4.1-9.8-10.7v-0.3c0-6.4,4.3-10.9,9.8-10.9
	c3.6,0,5.8,1.6,7.1,3.8v-3.3h6.2v20.6c0,6.6-4.4,10-11.8,10S39.2,77.8,38.5,73.2"/>
<path d="M169.6,59.1c-0.2-3.4-1.9-5-4.9-5c-2.8,0-4.7,1.8-5.1,5H169.6z M153.2,61.8v-0.3c0-7.1,5-11.6,11.5-11.6
	c5.8,0,10.9,3.4,10.9,11.4v1.7h-16.1c0.2,3.7,2.2,5.9,5.6,5.9c2.9,0,4.3-1.2,4.7-3.1h5.9c-0.7,4.8-4.6,7.5-10.7,7.5
	C158.1,73.2,153.2,68.9,153.2,61.8"/>
<rect x="177.9" y="40.8" width="6.2" height="31.9"/>
<path d="M187.5,50.3h6.2v22.4h-6.2V50.3z M187,43.9c-0.1-1.9,1.4-3.6,3.4-3.7c1.9-0.1,3.6,1.4,3.7,3.4c0.1,1.9-1.4,3.6-3.4,3.7
	c-0.1,0-0.1,0-0.2,0c-1.9,0.1-3.4-1.4-3.5-3.3C187,44,187,43.9,187,43.9"/>
<path d="M196.9,66V45.4h6.2v4.8h4.7v4.4h-4.7v10.8c0,1.8,0.9,2.7,2.5,2.7c0.8,0,1.6-0.1,2.4-0.4v4.8c-1.2,0.4-2.5,0.6-3.8,0.6
	C199.4,73,196.9,70.6,196.9,66"/>
<polygon points="226.2,50.2 221.2,63.7 215.8,50.2 209.1,50.2 218,70.3 214.1,80.2 220.1,80.2 232.2,50.2 "/>
<g>
	<path d="M225.2,21.2l-9-4.2v-4.9c1.2-0.4,1.9-1.6,1.6-2.8c-0.4-1.2-1.6-1.9-2.8-1.6c-1.2,0.4-1.9,1.6-1.6,2.8
		c0.2,0.8,0.8,1.3,1.6,1.6v13.6c-1.2,0.4-1.9,1.6-1.6,2.8c0.4,1.2,1.6,1.9,2.8,1.6s1.9-1.6,1.6-2.8c-0.2-0.8-0.8-1.3-1.6-1.6v-7.2
		l9,4.2v5.8c-1.2,0.4-1.9,1.6-1.6,2.8c0.4,1.2,1.6,1.9,2.8,1.6s1.9-1.6,1.6-2.8c-0.2-0.8-0.8-1.3-1.6-1.6V14.9
		c1.2-0.4,1.9-1.6,1.6-2.8c-0.4-1.2-1.6-1.9-2.8-1.6c-1.2,0.4-1.9,1.6-1.6,2.8c0.2,0.8,0.8,1.3,1.6,1.6V21.2z"/>
	<path d="M220.7,1.3c-10.4,0-18.9,8.5-18.9,18.9s8.5,18.9,18.9,18.9c10.4,0,18.9-8.5,18.9-18.9l0,0C239.6,9.8,231.1,1.3,220.7,1.3
		 M220.7,40.5c-11.2,0-20.2-9.1-20.2-20.2S209.5,0,220.7,0s20.2,9.1,20.2,20.2c0,0,0,0,0,0C240.9,31.4,231.8,40.5,220.7,40.5"/>
</g>
</svg>
