<?xml version="1.0" encoding="utf-8"?>
<!-- Generator: Adobe Illustrator 23.0.2, SVG Export Plug-In . SVG Version: 6.00 Build 0)  -->
<svg version="1.1" id="Layer_1" xmlns="http://www.w3.org/2000/svg" xmlns:xlink="http://www.w3.org/1999/xlink" x="0px" y="0px"
	 viewBox="0 0 265 52.3" style="enable-background:new 0 0 265 52.3;" xml:space="preserve">
<polygon points="67.5,13.4 73.4,13.4 73.4,25.2 83.8,25.2 83.8,13.4 89.7,13.4 89.7,40.6 83.8,40.6 83.8,29.9 73.4,29.9 73.4,40.6 
	67.5,40.6 "/>
<path d="M93.1,21.6h5.2v19h-5.2V21.6z M92.7,16.1c0-1.6,1.3-2.9,3-2.9c1.7,0,3,1.2,3,2.9c0,1.6-1.3,2.9-3,2.9
	C94,19,92.7,17.8,92.7,16.1"/>
<path d="M114.6,30.6v-0.3c0-3.2-1.7-5.2-4.6-5.2c-2.9,0-4.6,2.1-4.6,5.2v0.3c0,3.2,1.9,5.1,4.5,5.1
	C112.7,35.8,114.6,33.8,114.6,30.6 M100.2,41h5.2c0.3,1.7,1.5,2.8,4.2,2.8c3.2,0,4.8-1.7,4.8-4.7v-2.9c-1.1,1.9-3.3,3.5-6.1,3.5
	c-4.6,0-8.3-3.5-8.3-9.1v-0.3c0-5.5,3.6-9.3,8.4-9.3c3.1,0,4.9,1.3,6,3.3v-2.8h5.2v17.5c0,5.6-3.8,8.5-10,8.5
	C103.6,47.6,100.8,44.9,100.2,41"/>
<path d="M122.6,13.4h5.3v11.2c0.9-1.9,3-3.5,6.2-3.5c3.7,0,6.4,2.3,6.4,7.3v12.1h-5.3V29.3c0-2.6-1-3.8-3.3-3.8c-2.3,0-4,1.4-4,4.2
	v11h-5.3V13.4z"/>
<polygon points="150.2,13.4 166.9,13.4 166.9,18.1 156.1,18.1 156.1,26.1 166,26.1 166,30.5 156.1,30.5 156.1,40.6 150.2,40.6 "/>
<path d="M169.3,21.6h5.2v19h-5.2V21.6z M168.9,16.1c0-1.6,1.3-2.9,3-2.9c1.7,0,3,1.2,3,2.9c0,1.6-1.3,2.9-3,2.9
	C170.2,19,168.9,17.8,168.9,16.1"/>
<path d="M190.9,31.2v-0.3c0-3.8-1.7-5.7-4.5-5.7c-2.9,0-4.6,2-4.6,5.8v0.3c0,3.8,1.8,5.6,4.4,5.6C188.9,36.9,190.9,35,190.9,31.2
	 M176.4,31.4v-0.3c0-6.3,3.6-9.9,8.4-9.9c3.1,0,4.9,1.3,6,3.3v-11h5.2v27.2h-5.2v-3.2c-1,1.9-3.3,3.6-6.1,3.6
	C180,41,176.4,37.7,176.4,31.4"/>
<path d="M211.7,29c-0.2-2.9-1.6-4.3-4.1-4.3c-2.4,0-4,1.6-4.4,4.3H211.7z M197.8,31.3V31c0-6,4.3-9.9,9.8-9.9c4.9,0,9.3,2.9,9.3,9.7
	v1.5h-13.7c0.1,3.2,1.9,5,4.7,5c2.4,0,3.6-1.1,4-2.7h5c-0.6,4.1-3.9,6.4-9.1,6.4C202,41,197.8,37.4,197.8,31.3"/>
<rect x="218.8" y="13.4" width="5.2" height="27.2"/>
<path d="M227,21.6h5.2v19H227V21.6z M226.6,16.1c0-1.6,1.3-2.9,3-2.9c1.7,0,3,1.2,3,2.9c0,1.6-1.3,2.9-3,2.9
	C227.9,19,226.6,17.8,226.6,16.1"/>
<path d="M235,34.9V17.4h5.2v4.1h4v3.7h-4v9.2c0,1.5,0.8,2.3,2.1,2.3c0.8,0,1.4-0.1,2-0.4v4.1c-0.7,0.3-1.8,0.5-3.2,0.5
	C237.1,40.9,235,38.9,235,34.9"/>
<polygon points="259.9,21.5 255.7,32.9 251.1,21.5 245.4,21.5 252.9,38.6 249.6,47 254.7,47 265,21.5 "/>
<g>
	<path d="M26.2,1.7c-13.5,0-24.5,11-24.5,24.5c0,13.5,11,24.5,24.5,24.5s24.5-11,24.5-24.5C50.6,12.7,39.6,1.7,26.2,1.7 M26.2,52.3
		C11.7,52.3,0,40.6,0,26.2C0,11.7,11.7,0,26.2,0s26.2,11.7,26.2,26.2C52.3,40.6,40.6,52.3,26.2,52.3"/>
	<path d="M32,27.4L20.3,22v-6.4c1.2-0.4,2.1-1.5,2.1-2.8c0-1.6-1.3-3-3-3s-3,1.3-3,3c0,1.4,0.9,2.5,2.1,2.8v17.5
		c-1.2,0.4-2.1,1.5-2.1,2.8c0,1.6,1.3,3,3,3s3-1.3,3-3c0-1.4-0.9-2.5-2.1-2.8v-9.3L32,29.2v7.5c-1.2,0.4-2.1,1.5-2.1,2.8
		c0,1.6,1.3,3,3,3c1.6,0,3-1.3,3-3c0-1.4-0.9-2.5-2.1-2.8V19.2c1.2-0.4,2.1-1.5,2.1-2.8c0-1.6-1.3-3-3-3c-1.6,0-3,1.3-3,3
		c0,1.4,0.9,2.5,2.1,2.8V27.4z"/>
</g>
</svg>
