<svg width="160" height="56" viewBox="0 0 160 56" fill="none" xmlns="http://www.w3.org/2000/svg">
<path d="M0.833008 28.4525H5.37205V37.7136H13.4172V28.4525H17.9599V49.8112H13.4172V41.3734H5.37205V49.8112H0.833008V28.4525Z" fill="white"/>
<path d="M20.2773 30.5677C20.2773 29.2797 21.2881 28.3091 22.5765 28.3091C23.8945 28.3091 24.9015 29.2835 24.9015 30.5677C24.9015 31.8519 23.8908 32.8263 22.5765 32.8263C21.2881 32.8263 20.2773 31.8519 20.2773 30.5677ZM20.5883 34.8545H24.6239V49.8113H20.5883V34.8545Z" fill="white"/>
<path d="M26.0825 50.1283H30.1181C30.3698 51.4427 31.2954 52.3001 33.3724 52.3001C35.8382 52.3001 37.071 50.9857 37.071 48.6402V46.3816C36.2565 47.8395 34.5201 49.1576 32.3617 49.1576C28.8 49.1576 25.9678 46.442 25.9678 42.0079V41.8077C25.9678 37.5171 28.7741 34.5144 32.4172 34.5144C34.8015 34.5144 36.2306 35.5719 37.071 37.0865V34.8543H41.1065V48.6364C41.0806 53.0706 38.1928 55.3292 33.3724 55.3292C28.6334 55.333 26.475 53.2141 26.0825 50.1283ZM37.1821 41.9474V41.7473C37.1821 39.2016 35.8641 37.6568 33.6501 37.6568C31.3769 37.6568 30.1181 39.3149 30.1181 41.7775V42.0079C30.1181 44.4969 31.5472 46.0379 33.5649 46.0379C35.6975 46.0379 37.1821 44.4931 37.1821 41.9474Z" fill="white"/>
<path d="M43.2947 28.4525H47.3599V37.2301C48.0892 35.742 49.6849 34.5145 52.1247 34.5145C55.0126 34.5145 57.0562 36.2859 57.0562 40.2895V49.8112H52.9911V40.89C52.9911 38.8618 52.2062 37.8873 50.4106 37.8873C48.6742 37.8873 47.3562 38.9713 47.3562 41.177V49.8112H43.291V28.4525H43.2947Z" fill="white"/>
<path d="M64.5977 28.4525H77.4632V32.0859H69.1367V38.4048H76.7338V41.8909H69.1367V49.8112H64.5977V28.4525Z" fill="white"/>
<path d="M78.9707 30.5677C78.9707 29.2797 79.9814 28.3091 81.2698 28.3091C82.5879 28.3091 83.5949 29.2835 83.5949 30.5677C83.5949 31.8519 82.5842 32.8263 81.2698 32.8263C79.9777 32.8263 78.9707 31.8519 78.9707 30.5677ZM79.278 34.8545H83.3135V49.8113H79.278V34.8545Z" fill="white"/>
<path d="M84.7275 42.5481V42.3177C84.7275 37.3963 87.5043 34.5107 91.177 34.5107C93.5317 34.5107 94.9904 35.5683 95.8012 37.0828V28.4525H99.8367V49.8112H95.8012V47.3221C95.0459 48.8367 93.2503 50.1246 91.0918 50.1246C87.5339 50.1284 84.7275 47.5261 84.7275 42.5481ZM95.9159 42.4046V42.1742C95.9159 39.2017 94.6275 37.6834 92.4099 37.6834C90.1403 37.6834 88.8778 39.2546 88.8778 42.2308V42.4612C88.8778 45.4374 90.281 46.8953 92.2988 46.8953C94.4313 46.8953 95.9159 45.4374 95.9159 42.4046Z" fill="white"/>
<path d="M101.232 42.5182V42.2878C101.232 37.5704 104.513 34.511 108.774 34.511C112.558 34.511 115.923 36.7696 115.923 42.1178V43.2622H105.353C105.464 45.7512 106.782 47.1789 108.996 47.1789C110.873 47.1789 111.799 46.348 112.051 45.0903H115.89C115.412 48.3233 112.891 50.125 108.881 50.125C104.457 50.1287 101.232 47.296 101.232 42.5182ZM111.969 40.7166C111.828 38.4579 110.707 37.3702 108.774 37.3702C106.953 37.3702 105.72 38.5977 105.409 40.7166H111.969Z" fill="white"/>
<path d="M117.434 28.4525H121.469V49.8112H117.434V28.4525Z" fill="white"/>
<path d="M123.417 30.5677C123.417 29.2797 124.428 28.3091 125.716 28.3091C127.034 28.3091 128.041 29.2835 128.041 30.5677C128.041 31.8519 127.03 32.8263 125.716 32.8263C124.428 32.8263 123.417 31.8519 123.417 30.5677ZM123.728 34.8545H127.763V49.8113H123.728V34.8545Z" fill="white"/>
<path d="M129.918 45.3205V31.5648H133.953V34.7941H137.038V37.7401H133.953V44.9466C133.953 46.1476 134.542 46.7217 135.579 46.7217C136.193 46.7217 136.641 46.6349 137.119 46.4347V49.6375C136.56 49.8377 135.745 50.0379 134.653 50.0379C131.569 50.0417 129.918 48.4365 129.918 45.3205Z" fill="white"/>
<path d="M143.75 48.2398L137.919 34.7977H142.291L145.853 43.7793L149.133 34.7977H153.032L145.098 54.8457H141.173L143.75 48.2398Z" fill="white"/>
<path d="M131.78 14.3003C131.78 6.5991 137.922 0.33313 145.471 0.33313C153.02 0.33313 159.163 6.5991 159.163 14.3003C159.163 22.0015 153.02 28.2675 145.471 28.2675C137.922 28.2675 131.78 22.0015 131.78 14.3003ZM132.673 14.3003C132.673 21.4992 138.415 27.361 145.475 27.361C152.532 27.361 158.278 21.503 158.278 14.3003C158.278 7.09765 152.532 1.24338 145.471 1.24338C138.415 1.24338 132.673 7.09765 132.673 14.3003Z" fill="white"/>
<path d="M148.53 14.9501L142.417 12.0683V8.65772C143.065 8.46509 143.539 7.86078 143.539 7.13938C143.539 6.26313 142.843 5.54929 141.981 5.54929C141.122 5.54929 140.422 6.25935 140.422 7.13938C140.422 7.86078 140.896 8.46509 141.544 8.65772V18.0132C140.896 18.2059 140.422 18.8102 140.422 19.5316C140.422 20.4078 141.118 21.1217 141.981 21.1217C142.839 21.1217 143.539 20.4116 143.539 19.5316C143.539 18.8102 143.065 18.2059 142.417 18.0132V13.0465L148.53 15.9284V19.9433C147.882 20.1359 147.408 20.7402 147.408 21.4616C147.408 22.3378 148.104 23.0517 148.967 23.0517C149.826 23.0517 150.525 22.3416 150.525 21.4616C150.525 20.7402 150.052 20.1359 149.404 19.9433V10.5877C150.052 10.3951 150.525 9.7908 150.525 9.06941C150.525 8.19315 149.829 7.47931 148.967 7.47931C148.108 7.47931 147.408 8.18938 147.408 9.06941C147.408 9.7908 147.882 10.3951 148.53 10.5877V14.9501Z" fill="white"/>
</svg>
