<?xml version="1.0" encoding="utf-8"?>
<!-- Generator: Adobe Illustrator 19.2.0, SVG Export Plug-In . SVG Version: 6.00 Build 0)  -->
<svg version="1.1" xmlns="http://www.w3.org/2000/svg" xmlns:xlink="http://www.w3.org/1999/xlink" x="0px" y="0px"
	 viewBox="0 0 644.4 160" style="enable-background:new 0 0 644.4 160;" xml:space="preserve">
<style type="text/css">
	.st0{fill:#00B4F0;}
</style>
<g id="Layer_1">
	<path class="st0" d="M225.4,59.3v49.5h-10.6V87.2h-17.5v21.6h-10.6V59.3h10.6v19.1h17.5V59.3H225.4z"/>
	<path class="st0" d="M244.2,108.8h-10.6V59.3h10.6V108.8z"/>
	<path class="st0" d="M274.8,67.2c-2.5,0-4.6,0.2-6.4,0.7c-1.7,0.5-3.1,1.3-4.2,2.4c-1.1,1.1-1.8,2.7-2.3,4.6
		c-0.5,1.9-0.7,4.3-0.7,7.1v4.5c0,3,0.2,5.4,0.6,7.3c0.4,1.9,1.1,3.4,2.1,4.4c0.9,1.1,2.2,1.8,3.7,2.2c1.5,0.4,3.4,0.6,5.6,0.6
		c0.6,0,1.3,0,2-0.1c0.7,0,1.4-0.1,2.2-0.2V87.3h-6.2l1-8.2h15.2v28.2c-1.9,0.7-4.3,1.2-7.2,1.6c-2.8,0.4-5.8,0.6-8.8,0.6
		c-3.8,0-7-0.5-9.6-1.4c-2.7-0.9-4.8-2.3-6.5-4.2c-1.7-1.9-2.9-4.2-3.7-7.1c-0.8-2.8-1.1-6.2-1.1-10v-5.1c0-3.5,0.4-6.6,1.1-9.5
		c0.8-2.9,2.1-5.3,3.9-7.3c1.8-2,4.2-3.6,7.1-4.7c2.9-1.1,6.6-1.7,11-1.7c2.4,0,4.8,0.2,7.1,0.6c2.3,0.4,4.2,0.9,5.7,1.4l-1.7,8
		c-1.3-0.4-2.8-0.7-4.4-1C278.7,67.3,276.9,67.2,274.8,67.2z"/>
	<path class="st0" d="M335,59.3v49.5h-10.6V87.2H307v21.6h-10.6V59.3H307v19.1h17.5V59.3H335z"/>
	<path class="st0" d="M391.5,59.3l-1.2,8.6h-18.5v10.3h17.1l-1.2,8.6h-15.9v22h-10.6V59.3H391.5z"/>
	<path class="st0" d="M408.7,108.8h-10.6V59.3h10.6V108.8z"/>
	<path class="st0" d="M417.2,59.3h16.2c4.2,0,7.7,0.6,10.5,1.7c2.8,1.1,5,2.7,6.7,4.6c1.7,2,2.8,4.3,3.5,7.1c0.7,2.8,1,5.8,1,9v4.7
		c0,3.3-0.3,6.3-1,9.1c-0.7,2.8-1.9,5.1-3.5,7.1c-1.7,2-3.9,3.5-6.7,4.6c-2.8,1.1-6.3,1.7-10.5,1.7h-16.1V59.3z M427.7,100.2h4.6
		c2,0,3.7-0.2,5.3-0.7c1.5-0.5,2.8-1.3,3.8-2.4c1-1.1,1.7-2.6,2.2-4.4c0.5-1.8,0.7-4.1,0.7-6.9v-3.7c0-2.8-0.2-5.1-0.7-6.9
		c-0.5-1.8-1.2-3.3-2.2-4.4c-1-1.1-2.2-1.9-3.8-2.3c-1.5-0.4-3.3-0.7-5.3-0.7h-4.6V100.2z"/>
	<path class="st0" d="M492.8,59.3l-1.1,8.3h-19.1v10.8h18l-1,8.3h-16.9v13.9h20.2l-1.1,8.3H462V59.3H492.8z"/>
	<path class="st0" d="M510.3,59.3v40.9h20.1l-1.2,8.6h-29.5V59.3H510.3z"/>
	<path class="st0" d="M547.9,108.8h-10.6V59.3h10.6V108.8z"/>
	<path class="st0" d="M593.7,59.3l-1.2,8.6h-13.4v40.9h-10.6V67.9h-14.6l1.2-8.6H593.7z"/>
	<path class="st0" d="M618.8,78.6l10.3-19.3H640l-16.2,27.9v21.6h-10.6V87.2l-16-27.9h11.6L618.8,78.6z"/>
	<g>
		<path class="st0" d="M81.1,154.4c-10,0-19.8-2-28.9-5.8c-8.9-3.7-16.8-9.1-23.6-15.9c-6.8-6.8-12.2-14.8-15.9-23.6
			C8.7,99.8,6.7,90.1,6.7,80c0-10,2-19.8,5.8-28.9c3.7-8.9,9.1-16.8,15.9-23.6c6.8-6.8,14.8-12.2,23.6-15.9
			c9.2-3.9,18.9-5.8,28.9-5.8c10,0,19.8,2,28.9,5.8c8.9,3.7,16.8,9.1,23.6,15.9c6.8,6.8,12.2,14.8,15.9,23.6
			c3.9,9.2,5.8,18.9,5.8,28.9c0,10-2,19.8-5.8,28.9c-3.7,8.9-9.1,16.8-15.9,23.6c-6.8,6.8-14.8,12.2-23.6,15.9
			C100.9,152.4,91.1,154.4,81.1,154.4z M81.1,13.4c-36.7,0-66.6,29.9-66.6,66.6c0,36.7,29.9,66.6,66.6,66.6
			c36.7,0,66.6-29.9,66.6-66.6C147.7,43.3,117.8,13.4,81.1,13.4z"/>
		<path class="st0" d="M103.8,111.6V59.4c3.3-1.1,5.6-4.2,5.6-7.8c0-4.5-3.7-8.2-8.2-8.2s-8.2,3.7-8.2,8.2c0,3.5,2.1,6.4,5.2,7.7
			v24.3l-34-15.8V48.6c3.3-1.1,5.6-4.2,5.6-7.8c0-4.5-3.7-8.2-8.2-8.2s-8.2,3.7-8.2,8.2c0,3.5,2.1,6.4,5.2,7.7v52.5
			c-3,1.2-5.2,4.2-5.2,7.7c0,4.5,3.7,8.2,8.2,8.2s8.2-3.7,8.2-8.2c0-3.6-2.3-6.7-5.6-7.8V74.4l34,15.8v21.5c-3,1.2-5.2,4.2-5.2,7.7
			c0,4.5,3.7,8.2,8.2,8.2s8.2-3.7,8.2-8.2C109.4,115.7,107.1,112.7,103.8,111.6z"/>
	</g>
</g>
<g id="Layer_2">
</g>
</svg>
