<?xml version="1.0" standalone="no"?>
<!DOCTYPE svg PUBLIC "-//W3C//DTD SVG 20010904//EN"
 "http://www.w3.org/TR/2001/REC-SVG-20010904/DTD/svg10.dtd">
<svg version="1.0" xmlns="http://www.w3.org/2000/svg"
 width="1984.000000pt" height="1984.000000pt" viewBox="0 0 1984.000000 1984.000000"
 preserveAspectRatio="xMidYMid meet">
<metadata>
Created by potrace 1.11, written by Peter Selinger 2001-2013
</metadata>
<g transform="translate(0.000000,1984.000000) scale(0.100000,-0.100000)"
fill="#000000" stroke="none">
<path d="M9580 19501 c0 -3 -35 -6 -78 -7 -74 0 -280 -11 -352 -19 -19 -2 -74
-6 -122 -10 -49 -3 -96 -8 -105 -9 -10 -2 -45 -7 -78 -10 -79 -9 -132 -15
-175 -22 -19 -3 -50 -7 -68 -9 -67 -8 -118 -16 -170 -25 -29 -5 -56 -9 -60 -9
-4 1 -10 0 -14 -1 -13 -4 -21 -6 -69 -13 -81 -13 -103 -17 -155 -28 -28 -5
-61 -12 -75 -14 -13 -3 -35 -7 -49 -10 -63 -14 -127 -26 -152 -30 -15 -2 -32
-6 -37 -10 -6 -3 -23 -7 -38 -9 -16 -2 -109 -25 -208 -51 -99 -26 -193 -50
-210 -55 -99 -25 -517 -154 -550 -170 -16 -7 -49 -18 -75 -25 -3 -1 -12 -4
-20 -8 -8 -3 -42 -15 -75 -27 -87 -31 -314 -119 -360 -140 -22 -10 -80 -34
-130 -55 -49 -20 -95 -41 -101 -46 -6 -5 -14 -6 -17 -2 -4 3 -7 2 -7 -4 0 -5
-6 -10 -12 -10 -21 -1 -443 -203 -490 -236 -16 -10 -28 -15 -28 -11 0 3 -6 2
-12 -4 -7 -5 -49 -29 -93 -53 -44 -23 -93 -51 -110 -61 -16 -10 -37 -21 -45
-25 -35 -16 -257 -147 -272 -161 -10 -8 -18 -11 -18 -6 0 5 -4 4 -8 -1 -4 -6
-43 -33 -87 -60 -169 -103 -590 -391 -631 -430 -6 -6 -36 -28 -67 -49 -32 -22
-57 -43 -57 -47 0 -4 -8 -10 -18 -13 -10 -4 -27 -14 -38 -24 -10 -9 -66 -55
-124 -101 -58 -47 -121 -98 -141 -115 -19 -17 -49 -42 -65 -55 -276 -230 -652
-597 -929 -906 -38 -43 -75 -83 -80 -89 -6 -6 -48 -56 -94 -111 -46 -55 -95
-113 -108 -129 -14 -15 -68 -83 -120 -150 -52 -66 -102 -130 -111 -141 -103
-126 -464 -660 -572 -846 -147 -254 -222 -389 -220 -395 1 -4 -3 -10 -8 -13
-5 -3 -21 -28 -35 -56 -13 -27 -68 -137 -121 -243 -53 -106 -96 -194 -96 -197
0 -2 -18 -43 -41 -92 -22 -48 -44 -97 -49 -108 -50 -114 -184 -447 -217 -540
-13 -38 -38 -108 -54 -155 -17 -47 -32 -89 -33 -95 -1 -5 -23 -75 -49 -155
-61 -191 -166 -567 -182 -650 -3 -14 -7 -35 -10 -47 -3 -13 -7 -32 -10 -44 -2
-11 -6 -28 -9 -37 -3 -9 -8 -32 -11 -51 -3 -19 -8 -37 -10 -40 -2 -4 -6 -27
-10 -51 -3 -25 -10 -61 -15 -80 -5 -19 -12 -51 -15 -70 -3 -19 -10 -57 -15
-85 -5 -27 -12 -66 -15 -85 -3 -19 -8 -42 -10 -50 -2 -8 -6 -37 -10 -65 -3
-27 -10 -75 -15 -105 -14 -82 -18 -109 -26 -175 -3 -33 -8 -68 -10 -77 -1 -9
-6 -48 -10 -85 -3 -37 -8 -79 -9 -93 -2 -14 -6 -59 -10 -100 -3 -41 -8 -93
-10 -115 -8 -68 -18 -246 -19 -332 0 -46 -4 -83 -7 -83 -7 0 -2 -738 5 -830 2
-30 7 -102 10 -160 4 -58 9 -121 11 -140 2 -19 6 -71 10 -115 4 -44 8 -93 10
-110 1 -16 5 -50 8 -75 4 -25 9 -72 12 -105 4 -33 8 -67 10 -75 2 -8 7 -42 11
-75 3 -33 8 -63 10 -66 2 -3 6 -30 9 -60 3 -30 8 -61 10 -69 2 -8 7 -40 10
-70 4 -30 8 -57 10 -60 2 -3 6 -23 9 -45 4 -22 17 -94 31 -159 13 -66 22 -123
19 -128 -3 -4 -1 -8 5 -8 5 0 10 -8 9 -17 0 -10 3 -31 7 -48 4 -16 8 -37 9
-45 1 -9 5 -21 10 -28 4 -6 5 -12 2 -12 -2 0 0 -15 5 -32 6 -18 12 -44 15 -58
15 -77 142 -541 161 -590 3 -8 7 -21 9 -27 13 -67 172 -510 254 -712 27 -69
50 -131 50 -138 0 -7 5 -13 10 -13 6 0 10 -5 10 -11 0 -33 286 -643 321 -685
6 -8 9 -14 6 -14 -9 0 214 -396 321 -570 181 -294 459 -695 639 -920 24 -30
50 -62 56 -70 391 -494 896 -1006 1412 -1429 55 -46 109 -90 120 -99 11 -9 38
-30 60 -46 22 -17 42 -33 45 -36 3 -3 41 -32 85 -65 44 -33 82 -63 83 -67 2
-4 8 -8 13 -8 4 0 43 -26 86 -58 43 -32 112 -80 153 -107 41 -28 77 -53 80
-56 9 -10 282 -184 414 -264 168 -101 516 -295 516 -288 0 3 6 0 14 -6 28 -24
404 -206 419 -203 4 1 7 -3 7 -8 0 -6 9 -10 20 -10 11 0 20 -5 20 -11 0 -6 7
-9 15 -5 8 3 15 2 15 -2 0 -4 21 -16 48 -26 26 -11 72 -31 102 -45 30 -13 57
-25 60 -26 6 -1 368 -143 395 -155 11 -5 76 -28 145 -50 69 -23 134 -46 145
-50 93 -39 556 -170 815 -231 172 -41 186 -44 250 -54 19 -3 42 -8 50 -11 16
-6 42 -12 87 -18 16 -3 42 -7 58 -10 72 -14 100 -20 105 -21 3 -1 30 -5 60 -9
30 -5 62 -10 70 -11 26 -5 172 -27 204 -31 17 -2 47 -6 66 -9 39 -6 75 -10
165 -20 33 -4 76 -8 95 -10 19 -3 71 -7 115 -10 44 -3 94 -8 112 -10 38 -5
173 -14 298 -20 50 -2 90 -5 90 -6 0 -1 165 -3 368 -4 202 -1 367 1 367 4 0 3
37 7 83 7 85 1 263 11 332 19 22 2 74 7 115 10 41 4 86 8 100 10 14 1 56 6 93
9 37 4 76 9 85 10 9 2 44 7 77 10 65 8 90 12 175 26 30 5 75 12 100 15 25 3
68 10 95 15 28 5 62 12 78 14 83 14 182 34 182 36 0 1 14 3 30 5 17 2 39 6 50
9 35 8 209 48 230 52 26 5 60 13 85 19 11 3 28 7 38 9 24 6 265 71 332 89 30
9 127 39 215 67 88 28 165 52 170 53 27 8 181 60 190 66 6 3 15 7 20 8 25 6
130 45 250 93 72 29 136 52 143 53 6 0 12 4 12 8 0 4 10 9 23 13 13 3 45 15
73 28 27 12 51 23 54 23 10 3 61 25 122 54 35 16 95 43 133 61 123 56 319 153
348 173 15 10 27 15 27 11 0 -3 6 -2 13 4 6 5 48 29 92 53 44 23 94 51 110 61
17 10 37 21 45 25 35 16 257 147 273 161 9 8 17 12 17 8 0 -4 6 -2 13 4 6 6
77 52 157 103 149 94 434 287 473 320 12 10 34 26 50 35 15 9 27 20 27 24 0 4
6 8 14 8 8 0 16 4 18 8 2 5 21 22 43 38 23 16 47 35 55 42 8 6 78 62 155 123
77 61 154 123 170 137 17 15 44 38 60 51 30 23 129 110 240 211 230 210 503
484 690 696 39 43 88 99 110 124 22 24 45 50 50 56 38 43 227 276 272 336 30
40 59 75 64 76 5 2 9 10 9 17 0 7 4 15 9 17 11 4 271 366 271 378 0 4 3 10 8
12 33 14 530 837 514 852 -3 3 0 6 6 6 6 0 16 16 23 35 7 19 17 35 23 35 5 0
6 3 3 7 -4 3 -2 12 3 18 11 13 159 310 202 405 14 30 36 78 48 105 31 68 53
119 55 125 1 3 7 16 12 30 40 91 151 371 180 450 53 146 84 233 88 250 2 8 11
35 20 60 9 25 18 52 20 60 2 8 12 42 24 75 46 135 170 596 206 765 2 8 8 35
13 60 6 25 13 62 16 84 4 21 8 41 10 45 2 3 7 22 10 41 3 19 13 73 21 120 9
47 18 99 21 115 3 17 9 53 14 80 10 54 36 230 45 310 3 28 8 61 11 75 2 14 6
50 9 80 5 57 12 124 20 200 5 44 9 93 20 250 3 41 7 123 10 182 2 59 5 111 8
115 5 9 -1 732 -7 813 -2 30 -7 102 -10 160 -4 58 -9 121 -11 140 -2 19 -6 69
-10 110 -11 129 -27 272 -41 375 -3 22 -7 51 -9 65 -2 14 -7 45 -11 70 -4 25
-8 52 -9 60 -3 23 -17 123 -20 140 -8 46 -19 106 -20 110 -1 3 -5 25 -9 50 -5
25 -10 54 -12 65 -2 11 -6 31 -9 45 -3 14 -7 36 -10 50 -3 14 -8 39 -11 55 -2
17 -9 46 -15 66 -5 21 -14 59 -19 85 -17 83 -20 95 -51 219 -62 247 -192 680
-239 800 -4 11 -22 61 -40 110 -56 159 -171 445 -256 635 -79 179 -213 460
-224 470 -3 3 -26 48 -52 100 -59 118 -93 179 -200 361 -45 78 -90 154 -98
168 -8 14 -25 40 -37 58 -13 17 -23 34 -23 37 0 26 -439 651 -587 836 -24 30
-59 73 -76 95 -52 65 -196 237 -230 276 -18 19 -63 71 -102 114 -235 264 -586
610 -854 841 -19 16 -39 34 -45 39 -37 34 -149 125 -261 215 -71 58 -132 107
-135 110 -3 3 -13 10 -22 15 -9 6 -59 42 -110 81 -94 71 -150 111 -288 206
-41 28 -76 55 -78 60 -2 4 -8 8 -13 8 -7 0 -129 77 -265 168 -10 7 -27 15 -36
18 -10 4 -18 10 -18 15 0 5 -5 9 -11 9 -6 0 -23 8 -37 19 -47 33 -423 245
-517 292 -49 24 -92 46 -95 49 -5 6 -137 71 -295 145 -162 77 -318 145 -332
145 -7 0 -13 4 -13 8 0 5 -6 9 -12 9 -7 1 -92 33 -188 71 -96 39 -215 85 -265
102 -49 18 -99 36 -110 40 -44 18 -389 128 -455 145 -8 2 -49 14 -90 25 -92
27 -336 90 -370 96 -14 3 -33 7 -42 10 -10 3 -28 7 -40 10 -25 4 -54 11 -90
19 -13 3 -54 12 -93 20 -38 8 -81 17 -95 20 -39 8 -192 36 -223 41 -15 2 -39
6 -55 9 -15 3 -56 10 -92 15 -36 5 -76 12 -90 14 -14 3 -46 8 -72 10 -26 3
-62 8 -80 10 -18 3 -55 8 -83 11 -27 4 -63 8 -80 10 -48 7 -128 14 -207 20
-40 3 -91 8 -113 10 -52 6 -176 14 -295 20 -52 2 -95 5 -95 6 0 1 -161 3 -357
4 -197 1 -358 0 -358 -4z m870 -635 c25 -3 83 -7 130 -11 136 -10 172 -13 230
-19 51 -5 75 -8 190 -22 25 -3 63 -7 85 -9 22 -2 51 -7 65 -10 14 -2 45 -7 70
-10 46 -5 84 -11 133 -20 15 -3 39 -7 55 -10 15 -3 43 -8 62 -11 19 -3 46 -8
60 -11 32 -6 55 -10 105 -17 22 -4 48 -9 57 -12 10 -3 29 -7 44 -10 151 -27
527 -121 693 -173 36 -11 68 -18 73 -15 4 3 8 0 8 -5 0 -6 7 -11 15 -11 9 0
46 -10 83 -22 37 -12 69 -22 72 -23 3 0 10 -3 16 -7 6 -4 21 -9 35 -12 13 -2
61 -18 107 -35 45 -17 83 -30 85 -30 5 1 52 -16 107 -39 14 -5 97 -38 185 -72
88 -35 232 -94 320 -133 176 -78 638 -307 643 -319 2 -4 12 -8 23 -8 10 0 19
-4 19 -8 0 -5 17 -16 38 -26 31 -15 143 -81 330 -193 21 -12 44 -25 52 -29 8
-4 26 -15 40 -25 14 -9 102 -68 195 -129 94 -62 171 -117 173 -121 2 -5 8 -9
13 -9 6 0 15 -4 22 -10 7 -5 89 -67 182 -136 170 -127 330 -253 415 -327 25
-21 56 -49 70 -60 38 -32 104 -90 205 -181 118 -105 466 -454 580 -580 50 -55
97 -107 105 -116 8 -8 35 -40 60 -70 25 -30 50 -59 56 -65 6 -5 30 -35 55 -65
24 -30 48 -60 54 -66 13 -16 30 -36 95 -119 30 -39 58 -74 63 -80 60 -76 195
-261 222 -304 6 -9 13 -18 16 -21 11 -9 223 -332 296 -450 180 -294 366 -637
483 -895 18 -38 43 -92 55 -120 90 -197 220 -524 289 -730 26 -77 51 -149 56
-160 34 -81 195 -663 214 -775 3 -14 5 -25 6 -25 2 0 5 -13 13 -60 4 -16 13
-60 21 -96 8 -36 17 -79 20 -95 2 -16 7 -39 10 -50 2 -12 7 -39 10 -60 3 -22
8 -50 11 -64 13 -70 16 -87 20 -115 2 -16 7 -46 10 -65 3 -19 8 -51 11 -70 2
-19 7 -53 10 -75 3 -22 7 -51 9 -65 6 -55 15 -128 20 -175 4 -27 8 -66 10 -85
3 -19 7 -69 10 -110 3 -41 7 -93 10 -115 26 -264 26 -1206 1 -1342 -2 -10 -7
-65 -11 -123 -3 -57 -8 -107 -10 -110 -1 -3 -6 -36 -9 -75 -4 -38 -9 -86 -11
-105 -3 -19 -7 -56 -10 -81 -3 -25 -7 -55 -9 -66 -3 -11 -7 -44 -11 -74 -5
-44 -64 -385 -80 -464 -4 -20 -73 -328 -79 -355 -45 -182 -76 -295 -131 -475
-25 -82 -48 -158 -50 -169 -2 -10 -9 -24 -16 -32 -6 -8 -9 -14 -5 -14 3 0 -3
-21 -13 -48 -10 -26 -19 -50 -20 -54 -2 -12 -12 -40 -24 -73 -7 -16 -12 -32
-12 -35 0 -6 -2 -10 -75 -200 -55 -141 -116 -288 -156 -378 -13 -29 -24 -54
-24 -57 0 -4 -112 -241 -159 -335 -87 -174 -219 -416 -311 -570 -5 -8 -24 -40
-42 -70 -17 -30 -35 -57 -38 -60 -3 -3 -21 -32 -40 -65 -19 -33 -36 -62 -39
-65 -3 -3 -55 -79 -116 -170 -60 -91 -123 -184 -140 -206 -16 -23 -39 -54 -50
-70 -27 -37 -256 -336 -269 -350 -6 -7 -27 -31 -46 -55 -45 -56 -107 -130
-124 -149 -7 -8 -37 -42 -66 -75 -155 -175 -232 -257 -410 -435 -177 -177
-307 -300 -430 -406 -25 -22 -56 -49 -70 -61 -59 -51 -280 -232 -340 -278 -36
-27 -69 -53 -75 -58 -98 -80 -634 -450 -673 -464 -9 -4 -19 -9 -22 -13 -6 -7
-45 -32 -92 -59 -18 -10 -85 -49 -148 -86 -63 -38 -140 -81 -170 -97 -30 -16
-70 -38 -87 -48 -18 -11 -33 -16 -33 -12 0 4 -4 2 -8 -4 -6 -10 -440 -231
-460 -234 -4 -1 -27 -11 -52 -22 -134 -62 -528 -223 -565 -233 -5 -1 -17 -5
-25 -8 -62 -27 -405 -141 -550 -183 -247 -71 -500 -135 -511 -128 -5 3 -9 0
-9 -6 0 -6 -8 -10 -17 -8 -10 1 -22 0 -28 -4 -5 -3 -26 -9 -45 -12 -62 -10
-95 -17 -112 -22 -9 -3 -25 -6 -35 -8 -10 -2 -36 -7 -58 -11 -22 -4 -51 -9
-65 -11 -14 -3 -36 -7 -50 -10 -14 -3 -34 -7 -45 -9 -11 -1 -37 -6 -57 -9 -21
-3 -54 -9 -74 -12 -20 -3 -44 -7 -53 -9 -9 -2 -44 -7 -76 -11 -61 -8 -73 -10
-77 -13 -2 -1 -28 -4 -58 -6 -30 -3 -64 -6 -75 -9 -11 -2 -54 -7 -95 -11 -41
-4 -84 -9 -95 -11 -11 -2 -60 -6 -110 -10 -49 -3 -103 -7 -120 -9 -213 -26
-1078 -26 -1335 0 -19 2 -73 6 -120 10 -47 3 -96 8 -110 10 -14 3 -50 7 -80 9
-30 3 -71 7 -90 10 -19 3 -55 8 -80 11 -25 3 -54 7 -65 9 -11 2 -47 7 -80 11
-32 4 -68 9 -79 11 -11 2 -38 6 -61 9 -56 8 -82 13 -145 25 -68 14 -85 17
-135 24 -22 4 -48 9 -57 12 -10 3 -29 7 -44 10 -148 27 -530 122 -693 173 -36
11 -68 18 -73 15 -4 -3 -8 0 -8 5 0 6 -9 11 -20 11 -10 0 -29 4 -42 9 -22 9
-45 17 -60 20 -4 1 -23 8 -43 17 -19 8 -35 12 -35 9 0 -4 -6 -3 -12 2 -7 4
-17 8 -23 9 -5 1 -47 16 -93 33 -45 17 -83 30 -85 30 -3 -1 -40 12 -67 23 -14
6 -34 14 -45 18 -11 5 -92 36 -180 70 -155 61 -192 76 -303 126 -29 13 -55 24
-58 24 -3 0 -96 44 -207 98 -111 54 -209 102 -217 105 -15 7 -96 51 -225 122
-85 46 -295 169 -350 204 -22 14 -42 26 -45 26 -3 0 -106 68 -229 150 -123 83
-231 155 -240 160 -9 6 -18 12 -21 16 -3 3 -45 34 -95 70 -49 35 -99 71 -110
81 -11 9 -65 52 -121 95 -116 90 -171 134 -228 183 -22 19 -46 40 -54 45 -7 6
-18 15 -25 20 -325 279 -708 663 -977 980 -56 66 -112 131 -124 145 -11 14
-55 68 -96 120 -41 52 -80 101 -87 108 -7 7 -13 17 -13 20 0 4 -10 18 -23 32
-12 14 -51 66 -86 115 -36 50 -67 92 -70 95 -4 3 -10 12 -16 21 -5 9 -60 90
-121 180 -97 143 -208 316 -264 414 -120 206 -190 332 -190 342 0 7 -3 13 -8
13 -4 0 -17 21 -30 48 -12 26 -26 54 -31 62 -4 8 -12 24 -18 35 -5 11 -26 52
-46 90 -43 86 -131 268 -132 275 -1 3 -9 20 -18 37 -10 18 -17 34 -16 35 1 2
-7 23 -19 48 -11 25 -32 74 -47 110 -15 36 -33 79 -41 95 -19 43 -129 332
-144 380 -7 22 -17 49 -22 60 -5 12 -10 27 -12 35 -2 8 -6 24 -10 35 -5 11
-12 31 -16 45 -4 14 -11 34 -16 45 -4 11 -8 25 -10 30 -1 6 -14 48 -29 95 -61
195 -145 500 -159 575 -3 17 -10 48 -17 70 -6 22 -12 52 -13 68 0 15 -4 27 -7
27 -3 0 -6 6 -6 13 0 10 -5 34 -28 137 0 3 -5 28 -10 55 -4 28 -10 57 -12 65
-2 8 -5 27 -8 42 -2 15 -9 53 -14 85 -6 32 -13 74 -16 93 -3 19 -7 46 -10 60
-2 14 -7 45 -10 70 -3 25 -10 72 -15 105 -5 33 -12 85 -15 115 -3 30 -7 71
-10 90 -7 44 -12 102 -21 210 -3 47 -8 101 -10 120 -25 242 -25 1167 1 1332 2
13 6 64 10 113 4 50 8 106 11 125 16 138 44 360 49 390 1 8 6 40 10 70 4 30 9
64 11 75 3 11 7 36 10 55 3 19 7 42 9 50 2 8 7 38 11 65 3 28 8 53 10 56 2 4
6 24 10 45 3 22 15 80 26 129 10 50 21 101 24 115 3 14 10 43 15 65 5 22 16
67 24 101 7 33 30 121 50 195 40 148 45 163 77 264 12 39 23 75 24 80 1 6 21
69 45 140 24 72 44 132 44 135 1 3 4 12 8 20 3 8 20 56 38 105 35 101 167 430
203 509 13 28 34 74 46 101 13 28 37 79 53 115 17 36 34 72 37 80 3 8 29 62
59 120 30 58 53 107 53 110 0 3 4 10 9 16 5 6 26 44 48 85 49 93 78 147 124
227 21 35 37 65 37 67 0 2 18 31 40 64 22 33 40 62 40 65 0 12 242 387 268
414 6 7 12 17 12 21 0 4 9 19 20 32 33 40 35 43 59 82 13 21 28 43 35 50 7 6
27 34 46 62 19 27 40 56 47 65 6 8 33 42 58 75 65 85 129 167 173 220 9 11 50
61 91 110 40 50 79 95 85 100 6 6 40 44 76 85 145 167 513 541 679 690 46 41
89 80 95 85 6 6 40 34 76 64 36 30 70 60 75 65 8 9 65 56 123 101 7 5 21 17
30 26 9 8 58 47 107 85 50 38 95 72 100 77 6 4 62 46 125 92 63 47 120 88 125
92 6 5 30 21 55 38 25 16 47 32 50 35 20 21 435 284 578 365 101 58 135 77
267 149 11 6 23 15 26 19 3 5 8 8 10 7 2 -2 99 44 214 102 116 57 255 123 310
147 55 24 109 48 120 54 11 6 25 12 30 13 6 2 55 21 110 44 55 23 127 52 160
65 33 13 92 35 130 50 39 15 77 28 85 29 8 2 26 8 40 14 24 10 46 18 62 21 4
1 28 10 53 21 25 11 45 17 45 14 0 -2 13 2 30 11 16 8 31 15 32 14 2 -1 44 11
93 26 50 16 95 29 100 31 10 2 185 51 280 79 28 8 73 20 100 26 28 6 57 12 65
15 64 16 90 21 90 17 0 -2 6 -1 13 4 6 4 20 9 29 10 9 2 59 12 110 24 51 11
104 23 118 25 14 3 72 13 130 24 58 11 120 22 138 25 17 3 47 7 65 10 63 11
83 14 167 25 47 6 99 13 115 16 35 6 72 10 170 20 39 3 72 8 75 9 3 2 53 7
110 10 58 4 113 9 123 11 11 2 85 6 165 10 81 3 149 8 150 9 5 5 830 -4 882
-9z"/>
<path d="M7318 15919 c-7 -4 -29 -9 -48 -12 -19 -4 -42 -8 -50 -10 -8 -2 -28
-7 -45 -11 -83 -21 -256 -98 -263 -117 -2 -5 -10 -9 -17 -9 -8 0 -20 -6 -27
-12 -7 -7 -39 -32 -70 -56 -175 -133 -322 -359 -379 -580 -26 -102 -32 -147
-33 -272 -6 -350 166 -682 461 -892 66 -47 135 -84 241 -128 46 -19 84 -38 83
-42 0 -5 -1 -1447 -1 -3206 l0 -3198 -55 -18 c-72 -22 -217 -98 -285 -148
-317 -235 -486 -626 -438 -1013 8 -62 18 -115 25 -135 3 -8 8 -24 10 -35 6
-35 41 -122 77 -192 64 -128 176 -266 280 -348 22 -16 45 -36 52 -42 7 -7 15
-13 17 -13 3 0 36 -19 73 -42 38 -23 106 -56 151 -74 68 -27 97 -36 153 -49
160 -37 354 -33 519 9 343 89 619 336 749 671 26 67 55 181 57 226 1 20 4 40
7 45 7 12 7 217 0 228 -2 5 -6 27 -8 50 -4 47 -6 57 -33 151 -29 97 -91 223
-155 314 -68 95 -225 251 -254 251 -6 0 -12 4 -14 8 -10 25 -263 152 -302 152
-11 0 -13 329 -13 1700 0 935 3 1700 8 1700 4 0 50 -20 101 -44 51 -24 118
-55 148 -69 30 -13 85 -39 123 -56 37 -17 97 -45 135 -62 37 -17 94 -43 127
-59 62 -29 180 -84 275 -127 30 -14 93 -43 138 -64 46 -22 85 -39 87 -39 1 0
61 -27 131 -61 71 -34 172 -80 224 -104 52 -23 133 -61 180 -83 47 -22 110
-51 140 -65 30 -14 125 -57 210 -97 85 -40 180 -83 210 -97 86 -39 331 -153
374 -174 22 -10 46 -19 53 -19 7 0 13 -4 13 -10 0 -5 9 -10 20 -10 11 0 20 -4
20 -10 0 -5 3 -9 8 -8 9 2 33 -9 157 -68 55 -26 102 -48 105 -49 13 -4 63 -26
145 -65 50 -23 115 -54 145 -67 30 -14 87 -40 125 -58 78 -37 166 -77 270
-125 39 -17 98 -45 132 -61 35 -17 66 -30 70 -30 5 0 17 -6 28 -13 11 -7 97
-48 190 -90 94 -43 173 -82 176 -88 3 -5 6 -626 6 -1380 0 -1096 -3 -1371 -13
-1375 -7 -2 -18 -6 -26 -7 -19 -4 -45 -15 -118 -48 -98 -44 -219 -129 -302
-212 -73 -72 -168 -194 -168 -215 0 -6 -4 -11 -8 -11 -15 0 -92 -183 -116
-277 -31 -121 -40 -292 -23 -423 29 -217 147 -452 310 -615 77 -76 193 -165
216 -165 6 0 11 -3 11 -8 0 -10 152 -81 170 -79 3 0 14 -5 26 -11 11 -6 32
-13 45 -16 13 -3 35 -8 49 -11 169 -41 364 -40 510 1 30 8 64 17 75 18 27 4
97 33 175 74 347 182 576 546 584 927 5 205 -27 352 -115 530 -76 155 -214
310 -362 409 -46 31 -88 56 -94 56 -5 0 -15 6 -22 13 -6 6 -15 12 -19 12 -4 1
-22 9 -39 18 -18 10 -35 17 -38 17 -6 1 -31 9 -66 22 l-26 9 0 3206 0 3205 36
15 c20 8 50 20 66 28 17 7 48 20 69 29 62 26 204 124 275 191 145 136 253 321
303 520 40 155 44 324 13 490 -3 17 -8 37 -12 45 -3 8 -8 24 -10 35 -22 116
-149 337 -259 450 -52 53 -149 137 -168 145 -6 3 -24 14 -41 24 -16 11 -41 26
-55 35 -14 9 -54 28 -90 43 -226 97 -470 116 -713 54 -117 -30 -291 -111 -354
-166 -13 -11 -26 -20 -31 -20 -15 0 -212 -200 -212 -215 0 -3 -9 -16 -20 -28
-51 -54 -160 -309 -175 -408 -2 -14 -8 -52 -13 -83 -10 -62 -8 -225 2 -296 15
-96 50 -209 92 -295 41 -86 73 -144 84 -155 3 -3 16 -21 29 -40 32 -48 208
-218 246 -237 16 -9 32 -19 35 -23 9 -13 150 -84 219 -110 l66 -26 1 -1491 1
-1492 -46 19 c-25 10 -91 39 -146 65 -96 46 -145 68 -292 136 -38 17 -102 47
-143 66 -41 20 -100 46 -130 60 -30 14 -84 39 -120 55 -36 17 -128 60 -205 95
-77 36 -167 77 -200 93 -145 67 -214 99 -270 125 -33 15 -98 46 -145 68 -47
22 -91 40 -97 40 -7 0 -13 4 -13 8 0 4 -10 11 -22 15 -22 6 -89 37 -245 110
-40 19 -97 45 -128 59 -30 14 -81 37 -112 52 -32 15 -60 27 -63 28 -3 1 -36
16 -75 35 -149 70 -277 130 -280 130 -1 0 -60 27 -129 60 -70 33 -128 60 -130
60 -2 0 -51 22 -108 49 -56 27 -159 75 -228 106 -69 32 -161 74 -205 95 -44
21 -129 60 -190 88 -121 55 -200 91 -350 161 -55 26 -123 58 -151 70 l-51 23
1 1172 c1 644 3 1169 6 1166 3 -2 16 3 30 13 13 9 31 17 38 17 28 0 162 70
247 130 47 33 60 43 126 102 39 34 153 168 144 168 -3 0 3 10 15 22 11 12 20
26 20 32 0 5 6 17 14 25 21 24 92 197 109 266 38 149 42 344 12 498 -20 102
-115 328 -165 390 -96 121 -198 226 -255 263 -17 10 -32 22 -35 25 -3 4 -48
29 -100 57 -110 59 -222 97 -348 119 -46 7 -311 10 -324 2z"/>
</g>
</svg>
