<?xml version="1.0" encoding="UTF-8" standalone="no"?>
<svg
   width="4000mm"
   zoomAndPan="magnify"
   viewBox="0 0 11338.583 11338.583"
   height="4000mm"
   preserveAspectRatio="xMidYMid"
   version="1.0"
   id="svg306"
   sodipodi:docname="Table_semi-transparent_HF_Logo.svg"
   inkscape:version="1.2.1 (2ed6d7ae0b, 2022-08-22, custom)"
   xmlns:inkscape="http://www.inkscape.org/namespaces/inkscape"
   xmlns:sodipodi="http://sodipodi.sourceforge.net/DTD/sodipodi-0.dtd"
   xmlns="http://www.w3.org/2000/svg"
   xmlns:svg="http://www.w3.org/2000/svg">
  <sodipodi:namedview
     id="namedview308"
     pagecolor="#ffffff"
     bordercolor="#000000"
     borderopacity="0.25"
     inkscape:showpageshadow="2"
     inkscape:pageopacity="0.0"
     inkscape:pagecheckerboard="0"
     inkscape:deskcolor="#d1d1d1"
     showgrid="false"
     inkscape:zoom="0.053125"
     inkscape:cx="11162.353"
     inkscape:cy="7030.5882"
     inkscape:window-width="1846"
     inkscape:window-height="1016"
     inkscape:window-x="74"
     inkscape:window-y="27"
     inkscape:window-maximized="1"
     inkscape:current-layer="svg306"
     inkscape:document-units="mm" />
  <defs
     id="defs258">
    <filter
       x="0"
       y="0"
       width="1"
       height="1"
       id="80494da45f">
      <feColorMatrix
         values="0 0 0 0 1 0 0 0 0 1 0 0 0 0 1 0 0 0 1 0"
         color-interpolation-filters="sRGB"
         id="feColorMatrix235" />
    </filter>
    <clipPath
       id="0cff152464">
      <path
         d="M 0,0 H 749.40234 V 749.40234 H 0 Z m 0,0"
         clip-rule="nonzero"
         id="path238" />
    </clipPath>
    <clipPath
       id="2518beb985">
      <path
         d="M 8.332031,8.332031 H 741.83203 V 741.83203 H 8.332031 Z m 0,0"
         clip-rule="nonzero"
         id="path241" />
    </clipPath>
    <mask
       id="c24f0b40aa">
      <g
         filter="url(#80494da45f)"
         id="g246">
        <rect
           x="-75"
           width="900"
           fill="#000000"
           y="-75"
           height="900"
           fill-opacity="0.498"
           id="rect244" />
      </g>
    </mask>
    <clipPath
       id="32bdb170e7">
      <path
         d="m 49,62 h 29 v 38.70703 H 49 Z m 0,0"
         clip-rule="nonzero"
         id="path249" />
    </clipPath>
    <clipPath
       id="df9723a1b8">
      <path
         d="m 250,0.207031 h 51 V 51 h -51 z m 0,0"
         clip-rule="nonzero"
         id="path252" />
    </clipPath>
    <clipPath
       id="144c7695ca">
      <rect
         x="0"
         width="302"
         y="0"
         height="101"
         id="rect255" />
    </clipPath>
  </defs>
  <g
     clip-path="url(#0cff152464)"
     id="g262"
     transform="matrix(5.6738128,0,0,5.6738128,3543.3072,3543.3072)">
    <path
       fill="#000000"
       d="m 374.69922,749.40234 c -100.03906,0 -194.23828,-38.9414 -264.92578,-109.77734 C 38.9375,568.9375 0,474.73828 0,374.69922 0,274.66016 38.9375,180.46094 109.77344,109.77344 180.46094,38.9375 274.66016,0 374.69922,0 474.73828,0 568.9375,38.9375 639.625,109.77344 c 70.83594,70.83593 109.77734,164.88672 109.77734,264.92578 0,100.03906 -38.9414,194.23828 -109.77734,264.92578 -70.6875,70.83594 -164.88672,109.77734 -264.92578,109.77734 z m 0,-726.937496 c -94.04688,0 -182.5586,36.691406 -249.05078,103.183596 -66.49219,66.49218 -103.183596,155.0039 -103.183596,249.05078 0,94.05078 36.691406,182.55859 103.183596,249.05078 66.49218,66.49609 155.0039,103.1875 249.05078,103.1875 94.05078,0 182.55859,-36.69141 249.05078,-103.1875 66.49609,-66.49219 103.1875,-155 103.1875,-249.05078 0,-94.04688 -36.69141,-182.5586 -103.1875,-249.05078 C 557.25781,59.15625 468.75,22.464844 374.69922,22.464844 Z m 0,0"
       fill-opacity="1"
       fill-rule="nonzero"
       id="path260" />
  </g>
  <g
     mask="url(#c24f0b40aa)"
     id="g304"
     transform="matrix(5.6738128,0,0,5.6738128,3552.5766,3353.694)">
    <g
       transform="translate(224,301)"
       id="g302">
      <g
         clip-path="url(#144c7695ca)"
         id="g300">
        <path
           fill="#000000"
           d="M 25.394531,50.890625 V 68.035156 H 10.136719 V 50.890625 H 1.578125 v 39.628906 h 8.558594 V 74.867188 h 15.257812 v 15.652343 h 8.5625 V 50.890625 Z m 0,0"
           fill-opacity="1"
           fill-rule="nonzero"
           id="path268" />
        <path
           fill="#000000"
           d="m 38.917969,62.695312 h 7.691406 v 27.824219 h -7.691406 z m -0.496094,-7.953124 c -0.125,-2.359376 1.734375,-4.472657 4.21875,-4.59375 2.355469,-0.125 4.464844,1.738281 4.589844,4.222656 0.121093,2.359375 -1.738281,4.472656 -4.21875,4.59375 -0.125,0 -0.125,0 -0.25,0 -2.355469,0.125 -4.214844,-1.738282 -4.339844,-4.097656 0,0 0,-0.125 0,-0.125"
           fill-opacity="1"
           fill-rule="nonzero"
           id="path270" />
        <path
           fill="#000000"
           d="m 81.964844,50.890625 h 7.691406 v 16.273437 c 1.363281,-2.730468 4.464844,-5.089843 9.054688,-5.089843 5.457032,0 9.304692,3.351562 9.304692,10.683593 v 17.636719 h -7.69141 V 73.875 c 0,-3.726562 -1.488282,-5.589844 -4.839845,-5.589844 -3.347656,0 -5.828125,2.109375 -5.828125,6.210938 v 16.023437 h -7.691406 z m 0,0"
           fill-opacity="1"
           fill-rule="nonzero"
           id="path272" />
        <path
           fill="#000000"
           d="m 122.28125,50.890625 h 24.31641 v 6.710937 h -15.75782 v 11.675782 h 14.39063 v 6.460937 h -14.39063 v 14.78125 h -8.55859 z m 0,0"
           fill-opacity="1"
           fill-rule="nonzero"
           id="path274" />
        <path
           fill="#000000"
           d="m 150.07031,62.695312 h 7.69141 v 27.824219 h -7.69141 z m -0.62109,-7.953124 c -0.125,-2.359376 1.73828,-4.472657 4.21875,-4.59375 2.48047,-0.125 4.46484,1.738281 4.58984,4.222656 0.125,2.359375 -1.73828,4.472656 -4.21875,4.59375 -0.125,0 -0.125,0 -0.24609,0 -2.35938,0.125 -4.21875,-1.738282 -4.34375,-4.097656 0,0 0,-0.125 0,-0.125"
           fill-opacity="1"
           fill-rule="nonzero"
           id="path276" />
        <path
           fill="#000000"
           d="m 181.57812,76.730469 v -0.371094 c 0,-5.589844 -2.48046,-8.324219 -6.69921,-8.324219 -4.21485,0 -6.69922,2.855469 -6.69922,8.449219 v 0.371094 c 0,5.589843 2.60547,8.199219 6.45312,8.199219 4.09375,0 6.94531,-2.609376 6.94531,-8.324219 m -21.21093,0.25 v -0.375 c 0,-9.191407 5.21093,-14.53125 12.15625,-14.53125 4.46484,0 7.19531,1.984375 8.80859,4.71875 V 50.890625 h 7.69141 v 39.628906 h -7.69141 v -4.59375 c -1.73828,3.226563 -5.21094,5.214844 -8.93359,5.214844 -6.69922,0 -12.03125,-4.84375 -12.03125,-14.160156"
           fill-opacity="1"
           fill-rule="nonzero"
           id="path278" />
        <g
           clip-path="url(#32bdb170e7)"
           id="g282">
          <path
             fill="#000000"
             d="m 70.425781,75.863281 v -0.375 c 0,-4.71875 -2.480469,-7.578125 -6.699219,-7.578125 -4.214843,0 -6.695312,3.105469 -6.695312,7.703125 v 0.371094 c 0,4.597656 2.726562,7.457031 6.574219,7.457031 3.96875,0 6.820312,-2.859375 6.820312,-7.578125 M 49.339844,91.140625 h 7.691406 c 0.496094,2.484375 2.230469,3.976563 6.199219,3.976563 4.714843,0 7.074219,-2.484376 7.074219,-6.832032 V 84.0625 c -1.863282,3.226562 -5.210938,5.089844 -8.933594,5.214844 -6.699219,0 -12.15625,-5.09375 -12.15625,-13.292969 v -0.371094 c 0,-7.949219 5.332031,-13.539062 12.15625,-13.539062 4.464844,0 7.195312,1.984375 8.808594,4.71875 v -4.097657 h 7.691406 v 25.589844 c 0,8.199219 -5.460938,12.421874 -14.640625,12.421874 -9.179688,0 -13.023438,-3.851561 -13.890625,-9.566405"
             fill-opacity="1"
             fill-rule="nonzero"
             id="path280" />
        </g>
        <path
           fill="#000000"
           d="m 211.97266,73.625 c -0.25,-4.222656 -2.35547,-6.210938 -6.07813,-6.210938 -3.47266,0 -5.83203,2.234376 -6.32812,6.210938 z m -20.34375,3.355469 v -0.375 c 0,-8.820313 6.20312,-14.410157 14.26562,-14.410157 7.19531,0 13.51953,4.226563 13.51953,14.164063 v 2.109375 h -19.97265 c 0.25,4.597656 2.73046,7.332031 6.94921,7.332031 3.59766,0 5.33204,-1.492187 5.82813,-3.851562 h 7.32031 c -0.86719,5.960937 -5.70703,9.316406 -13.27344,9.316406 -8.55859,-0.125 -14.63671,-5.464844 -14.63671,-14.285156"
           fill-opacity="1"
           fill-rule="nonzero"
           id="path284" />
        <path
           fill="#000000"
           d="m 222.26953,50.890625 h 7.69141 v 39.628906 h -7.69141 z m 0,0"
           fill-opacity="1"
           fill-rule="nonzero"
           id="path286" />
        <path
           fill="#000000"
           d="m 234.17969,62.695312 h 7.6914 v 27.824219 h -7.6914 z m -0.6211,-7.953124 c -0.125,-2.359376 1.73438,-4.472657 4.21875,-4.59375 2.35547,-0.125 4.46485,1.738281 4.58985,4.222656 0.12109,2.359375 -1.73828,4.472656 -4.21875,4.59375 -0.125,0 -0.125,0 -0.25,0 -2.35547,0.125 -4.21485,-1.738282 -4.33985,-4.097656 0,0 0,-0.125 0,-0.125"
           fill-opacity="1"
           fill-rule="nonzero"
           id="path288" />
        <path
           fill="#000000"
           d="M 245.83984,82.195312 V 56.605469 h 7.69141 v 5.964843 h 5.82812 v 5.464844 h -5.82812 v 13.417969 c 0,2.234375 1.11719,3.351563 3.10156,3.351563 0.99219,0 1.98438,-0.121094 2.97656,-0.496094 v 5.964844 c -1.48828,0.496093 -3.10156,0.742187 -4.71484,0.742187 -5.95312,-0.121094 -9.05469,-3.105469 -9.05469,-8.820313"
           fill-opacity="1"
           fill-rule="nonzero"
           id="path290" />
        <path
           fill="#000000"
           d="m 282.1875,62.570312 -6.20313,16.769532 -6.69921,-16.769532 h -8.3125 l 11.04296,24.96875 -4.83984,12.296876 h 7.44531 l 15.00782,-37.265626 z m 0,0"
           fill-opacity="1"
           fill-rule="nonzero"
           id="path292" />
        <path
           fill="#000000"
           d="m 280.94531,26.542969 -11.16406,-5.21875 v -6.085938 c 1.48828,-0.496093 2.35547,-1.988281 1.98437,-3.476562 -0.49609,-1.492188 -1.98437,-2.363281 -3.47265,-1.988281 -1.48828,0.496093 -2.35547,1.988281 -1.98438,3.476562 0.2461,0.996094 0.99219,1.617188 1.98438,1.988281 v 16.894531 c -1.48828,0.496094 -2.35547,1.988282 -1.98438,3.480469 0.4961,1.488281 1.98438,2.359375 3.47266,1.984375 1.48828,-0.371094 2.35547,-1.984375 1.98437,-3.476562 -0.24609,-0.992188 -0.99218,-1.613282 -1.98437,-1.988282 V 23.1875 l 11.16406,5.21875 v 7.207031 c -1.48828,0.496094 -2.35547,1.984375 -1.98437,3.476563 0.49609,1.492187 1.98437,2.359375 3.47265,1.988281 1.48828,-0.371094 2.35938,-1.988281 1.98438,-3.480469 -0.2461,-0.992187 -0.99219,-1.613281 -1.98438,-1.984375 V 18.71875 c 1.48828,-0.5 2.35938,-1.988281 1.98438,-3.480469 -0.4961,-1.492187 -1.98438,-2.359375 -3.47266,-1.988281 -1.48828,0.496094 -2.35547,1.988281 -1.98437,3.480469 0.25,0.992187 0.99218,1.613281 1.98437,1.988281 z m 0,0"
           fill-opacity="1"
           fill-rule="nonzero"
           id="path294" />
        <g
           clip-path="url(#df9723a1b8)"
           id="g298">
          <path
             fill="#000000"
             d="m 275.36328,1.820312 c -12.90234,0 -23.44531,10.5625 -23.44531,23.480469 0,12.917969 10.54297,23.480469 23.44531,23.480469 12.90234,0 23.44531,-10.5625 23.44531,-23.480469 0,-12.917969 -10.54297,-23.480469 -23.44531,-23.480469 m 0,48.699219 c -13.89453,0 -25.05859,-11.304687 -25.05859,-25.09375 0,-13.789062 11.16406,-25.21875 25.05859,-25.21875 13.89453,0 25.05859,11.304688 25.05859,25.09375 0,13.914063 -11.28906,25.21875 -25.05859,25.21875"
             fill-opacity="1"
             fill-rule="nonzero"
             id="path296" />
        </g>
      </g>
    </g>
  </g>
</svg>
