<svg xmlns="http://www.w3.org/2000/svg" xmlns:xlink="http://www.w3.org/1999/xlink" width="3779" zoomAndPan="magnify" viewBox="0 0 2835 2834.999876" height="3779" preserveAspectRatio="xMidYMid meet" version="1.0"><defs><filter x="0%" y="0%" width="100%" height="100%" id="911efb71f5"><feColorMatrix values="0 0 0 0 1 0 0 0 0 1 0 0 0 0 1 0 0 0 1 0" color-interpolation-filters="sRGB"/></filter><clipPath id="18f1657bff"><path d="M 884.515625 884.515625 L 1949.28125 884.515625 L 1949.28125 1949.277344 L 884.515625 1949.277344 Z M 884.515625 884.515625 " clip-rule="nonzero"/></clipPath><clipPath id="37994f90f4"><path d="M 896.355469 896.355469 L 1938.421875 896.355469 L 1938.421875 1938.421875 L 896.355469 1938.421875 Z M 896.355469 896.355469 " clip-rule="nonzero"/></clipPath><mask id="b58ddefede"><g filter="url(#911efb71f5)"><rect x="-283.5" width="3402" fill="#000000" y="-283.499988" height="3401.999851" fill-opacity="0.498"/></g></mask><clipPath id="8c306f7af3"><path d="M 68 88 L 110 88 L 110 143.140625 L 68 143.140625 Z M 68 88 " clip-rule="nonzero"/></clipPath><clipPath id="57e80f5773"><path d="M 354 0.476562 L 426 0.476562 L 426 72 L 354 72 Z M 354 0.476562 " clip-rule="nonzero"/></clipPath><clipPath id="2f78c6b377"><rect x="0" width="427" y="0" height="144"/></clipPath></defs><g clip-path="url(#18f1657bff)"><path fill="#000000" d="M 1416.898438 1949.277344 C 1274.757812 1949.277344 1140.917969 1893.957031 1040.484375 1793.308594 C 939.839844 1692.875 884.515625 1559.035156 884.515625 1416.898438 C 884.515625 1274.757812 939.839844 1140.917969 1040.484375 1040.484375 C 1140.917969 939.835938 1274.757812 884.515625 1416.898438 884.515625 C 1559.035156 884.515625 1692.875 939.835938 1793.308594 1040.484375 C 1893.957031 1141.128906 1949.277344 1274.757812 1949.277344 1416.898438 C 1949.277344 1559.035156 1893.957031 1692.875 1793.308594 1793.308594 C 1692.875 1893.957031 1559.035156 1949.277344 1416.898438 1949.277344 Z M 1416.898438 916.433594 C 1283.269531 916.433594 1157.515625 968.5625 1063.039062 1063.039062 C 968.5625 1157.515625 916.433594 1283.269531 916.433594 1416.898438 C 916.433594 1550.523438 968.5625 1676.277344 1063.039062 1770.753906 C 1157.515625 1865.230469 1283.269531 1917.363281 1416.898438 1917.363281 C 1550.523438 1917.363281 1676.277344 1865.230469 1770.753906 1770.753906 C 1865.230469 1676.277344 1917.363281 1550.523438 1917.363281 1416.898438 C 1917.363281 1283.269531 1865.230469 1157.515625 1770.753906 1063.039062 C 1676.277344 968.5625 1550.523438 916.433594 1416.898438 916.433594 Z M 1416.898438 916.433594 " fill-opacity="1" fill-rule="nonzero"/></g><g clip-path="url(#37994f90f4)"><path fill="#ffffff" d="M 1417.386719 896.355469 C 1129.628906 896.355469 896.355469 1129.628906 896.355469 1417.386719 C 896.355469 1705.148438 1129.628906 1938.421875 1417.386719 1938.421875 C 1705.148438 1938.421875 1938.421875 1705.148438 1938.421875 1417.386719 C 1938.421875 1129.628906 1705.148438 896.355469 1417.386719 896.355469 " fill-opacity="1" fill-rule="nonzero"/></g><g mask="url(#b58ddefede)"><g transform="matrix(1, 0, 0, 1, 1204, 1312)"><g clip-path="url(#2f78c6b377)"><path fill="#000000" d="M 34.859375 72.425781 L 34.859375 96.761719 L 13.175781 96.761719 L 13.175781 72.425781 L 1.011719 72.425781 L 1.011719 128.679688 L 13.175781 128.679688 L 13.175781 106.460938 L 34.859375 106.460938 L 34.859375 128.679688 L 47.023438 128.679688 L 47.023438 72.425781 Z M 34.859375 72.425781 " fill-opacity="1" fill-rule="nonzero"/><path fill="#000000" d="M 54.074219 89.179688 L 65.003906 89.179688 L 65.003906 128.679688 L 54.074219 128.679688 Z M 53.367188 77.890625 C 53.191406 74.542969 55.835938 71.542969 59.363281 71.367188 C 62.710938 71.191406 65.707031 73.835938 65.882812 77.363281 C 66.0625 80.714844 63.417969 83.710938 59.890625 83.886719 C 59.714844 83.886719 59.714844 83.886719 59.539062 83.886719 C 56.1875 84.0625 53.542969 81.417969 53.367188 78.066406 C 53.367188 78.066406 53.367188 77.890625 53.367188 77.890625 " fill-opacity="1" fill-rule="nonzero"/><path fill="#000000" d="M 115.246094 72.425781 L 126.175781 72.425781 L 126.175781 95.527344 C 128.113281 91.648438 132.519531 88.296875 139.042969 88.296875 C 146.800781 88.296875 152.265625 93.058594 152.265625 103.460938 L 152.265625 128.503906 L 141.335938 128.503906 L 141.335938 105.050781 C 141.335938 99.757812 139.21875 97.113281 134.460938 97.113281 C 129.699219 97.113281 126.175781 100.113281 126.175781 105.929688 L 126.175781 128.679688 L 115.246094 128.679688 Z M 115.246094 72.425781 " fill-opacity="1" fill-rule="nonzero"/><path fill="#000000" d="M 172.539062 72.425781 L 207.089844 72.425781 L 207.089844 81.949219 L 184.703125 81.949219 L 184.703125 98.523438 L 205.152344 98.523438 L 205.152344 107.695312 L 184.703125 107.695312 L 184.703125 128.679688 L 172.539062 128.679688 Z M 172.539062 72.425781 " fill-opacity="1" fill-rule="nonzero"/><path fill="#000000" d="M 212.027344 89.179688 L 222.957031 89.179688 L 222.957031 128.679688 L 212.027344 128.679688 Z M 211.144531 77.890625 C 210.96875 74.542969 213.613281 71.542969 217.140625 71.367188 C 220.664062 71.191406 223.484375 73.835938 223.664062 77.363281 C 223.839844 80.714844 221.195312 83.710938 217.667969 83.886719 C 217.492188 83.886719 217.492188 83.886719 217.316406 83.886719 C 213.964844 84.0625 211.320312 81.417969 211.144531 78.066406 C 211.144531 78.066406 211.144531 77.890625 211.144531 77.890625 " fill-opacity="1" fill-rule="nonzero"/><path fill="#000000" d="M 256.804688 109.105469 L 256.804688 108.578125 C 256.804688 100.640625 253.277344 96.761719 247.285156 96.761719 C 241.292969 96.761719 237.765625 100.816406 237.765625 108.753906 L 237.765625 109.28125 C 237.765625 117.21875 241.46875 120.921875 246.933594 120.921875 C 252.75 120.921875 256.804688 117.21875 256.804688 109.105469 M 226.660156 109.457031 L 226.660156 108.929688 C 226.660156 95.878906 234.0625 88.296875 243.933594 88.296875 C 250.28125 88.296875 254.160156 91.117188 256.453125 94.996094 L 256.453125 72.425781 L 267.382812 72.425781 L 267.382812 128.679688 L 256.453125 128.679688 L 256.453125 122.15625 C 253.984375 126.738281 249.046875 129.5625 243.757812 129.5625 C 234.238281 129.5625 226.660156 122.683594 226.660156 109.457031 " fill-opacity="1" fill-rule="nonzero"/><g clip-path="url(#8c306f7af3)"><path fill="#000000" d="M 98.851562 107.871094 L 98.851562 107.339844 C 98.851562 100.640625 95.324219 96.585938 89.332031 96.585938 C 83.335938 96.585938 79.8125 100.992188 79.8125 107.519531 L 79.8125 108.046875 C 79.8125 114.570312 83.691406 118.628906 89.15625 118.628906 C 94.796875 118.628906 98.851562 114.570312 98.851562 107.871094 M 68.882812 129.5625 L 79.8125 129.5625 C 80.515625 133.089844 82.984375 135.203125 88.625 135.203125 C 95.324219 135.203125 98.675781 131.675781 98.675781 125.503906 L 98.675781 119.507812 C 96.03125 124.09375 91.269531 126.738281 85.980469 126.917969 C 76.460938 126.917969 68.707031 119.6875 68.707031 108.046875 L 68.707031 107.519531 C 68.707031 96.230469 76.285156 88.296875 85.980469 88.296875 C 92.328125 88.296875 96.207031 91.117188 98.496094 94.996094 L 98.496094 89.179688 L 109.425781 89.179688 L 109.425781 125.503906 C 109.425781 137.144531 101.671875 143.140625 88.625 143.140625 C 75.582031 143.140625 70.117188 137.671875 68.882812 129.5625 " fill-opacity="1" fill-rule="nonzero"/></g><path fill="#000000" d="M 299.996094 104.695312 C 299.640625 98.699219 296.644531 95.878906 291.355469 95.878906 C 286.421875 95.878906 283.070312 99.054688 282.367188 104.695312 Z M 271.082031 109.457031 L 271.082031 108.929688 C 271.082031 96.410156 279.898438 88.472656 291.355469 88.472656 C 301.582031 88.472656 310.570312 94.46875 310.570312 108.578125 L 310.570312 111.574219 L 282.191406 111.574219 C 282.542969 118.097656 286.066406 121.976562 292.0625 121.976562 C 297.175781 121.976562 299.640625 119.863281 300.347656 116.511719 L 310.75 116.511719 C 309.515625 124.976562 302.640625 129.738281 291.886719 129.738281 C 279.722656 129.5625 271.082031 121.976562 271.082031 109.457031 " fill-opacity="1" fill-rule="nonzero"/><path fill="#000000" d="M 314.625 72.425781 L 325.558594 72.425781 L 325.558594 128.679688 L 314.625 128.679688 Z M 314.625 72.425781 " fill-opacity="1" fill-rule="nonzero"/><path fill="#000000" d="M 331.550781 89.179688 L 342.480469 89.179688 L 342.480469 128.679688 L 331.550781 128.679688 Z M 330.667969 77.890625 C 330.492188 74.542969 333.136719 71.542969 336.664062 71.367188 C 340.011719 71.191406 343.007812 73.835938 343.183594 77.363281 C 343.363281 80.714844 340.71875 83.710938 337.191406 83.886719 C 337.015625 83.886719 337.015625 83.886719 336.839844 83.886719 C 333.488281 84.0625 330.84375 81.417969 330.667969 78.066406 C 330.667969 78.066406 330.667969 77.890625 330.667969 77.890625 " fill-opacity="1" fill-rule="nonzero"/><path fill="#000000" d="M 348.121094 116.863281 L 348.121094 80.539062 L 359.050781 80.539062 L 359.050781 89 L 367.335938 89 L 367.335938 96.761719 L 359.050781 96.761719 L 359.050781 115.804688 C 359.050781 118.980469 360.636719 120.566406 363.457031 120.566406 C 364.867188 120.566406 366.277344 120.390625 367.691406 119.863281 L 367.691406 128.328125 C 365.574219 129.03125 363.28125 129.386719 360.992188 129.386719 C 352.527344 129.207031 348.121094 124.976562 348.121094 116.863281 " fill-opacity="1" fill-rule="nonzero"/><path fill="#000000" d="M 399.773438 89 L 390.960938 112.808594 L 381.441406 89 L 369.628906 89 L 385.316406 124.449219 L 378.441406 141.90625 L 389.019531 141.90625 L 410.351562 89 Z M 399.773438 89 " fill-opacity="1" fill-rule="nonzero"/><path fill="#000000" d="M 398.011719 37.863281 L 382.144531 30.453125 L 382.144531 21.8125 C 384.261719 21.109375 385.496094 18.992188 384.964844 16.875 C 384.261719 14.761719 382.144531 13.527344 380.03125 14.054688 C 377.914062 14.761719 376.679688 16.875 377.210938 18.992188 C 377.5625 20.402344 378.621094 21.285156 380.03125 21.8125 L 380.03125 45.796875 C 377.914062 46.503906 376.679688 48.617188 377.210938 50.734375 C 377.914062 52.851562 380.03125 54.085938 382.144531 53.554688 C 384.261719 53.027344 385.496094 50.734375 384.964844 48.617188 C 384.613281 47.207031 383.554688 46.324219 382.144531 45.796875 L 382.144531 33.101562 L 398.011719 40.507812 L 398.011719 50.734375 C 395.894531 51.441406 394.660156 53.554688 395.191406 55.671875 C 395.894531 57.789062 398.011719 59.023438 400.125 58.492188 C 402.242188 57.964844 403.476562 55.671875 402.945312 53.554688 C 402.59375 52.144531 401.535156 51.265625 400.125 50.734375 L 400.125 26.75 C 402.242188 26.046875 403.476562 23.929688 402.945312 21.8125 C 402.242188 19.699219 400.125 18.464844 398.011719 18.992188 C 395.894531 19.699219 394.660156 21.8125 395.191406 23.929688 C 395.542969 25.339844 396.601562 26.222656 398.011719 26.75 Z M 398.011719 37.863281 " fill-opacity="1" fill-rule="nonzero"/><g clip-path="url(#57e80f5773)"><path fill="#000000" d="M 390.078125 2.769531 C 371.742188 2.769531 356.757812 17.757812 356.757812 36.097656 C 356.757812 54.4375 371.742188 69.425781 390.078125 69.425781 C 408.410156 69.425781 423.398438 54.4375 423.398438 36.097656 C 423.398438 17.757812 408.410156 2.769531 390.078125 2.769531 M 390.078125 71.894531 C 370.332031 71.894531 354.46875 55.847656 354.46875 36.273438 C 354.46875 16.699219 370.332031 0.476562 390.078125 0.476562 C 409.824219 0.476562 425.6875 16.523438 425.6875 36.097656 C 425.6875 55.847656 409.644531 71.894531 390.078125 71.894531 " fill-opacity="1" fill-rule="nonzero"/></g></g></g></g></svg>